<!-- EduAssist Icon 128x128 -->
<svg width="128" height="128" viewBox="0 0 128 128" xmlns="http://www.w3.org/2000/svg">
  <!-- Background Gradient -->
  <defs>
    <linearGradient id="bg" x1="0%" y1="0%" x2="100%" y2="100%">
      <stop offset="0%" style="stop-color:#2E8B57;stop-opacity:1" />
      <stop offset="100%" style="stop-color:#228B22;stop-opacity:1" />
    </linearGradient>
    <linearGradient id="book" x1="0%" y1="0%" x2="100%" y2="100%">
      <stop offset="0%" style="stop-color:#ffffff;stop-opacity:1" />
      <stop offset="100%" style="stop-color:#f8f8f8;stop-opacity:1" />
    </linearGradient>
  </defs>
  
  <!-- Background -->
  <rect width="128" height="128" rx="20" fill="url(#bg)"/>
  
  <!-- Book/Education Symbol -->
  <rect x="20" y="45" width="88" height="65" rx="4" fill="url(#book)" stroke="#2E8B57" stroke-width="2"/>
  
  <!-- Book Pages -->
  <rect x="25" y="52" width="78" height="6" fill="#2E8B57"/>
  <rect x="25" y="62" width="58" height="3" fill="#2E8B57" opacity="0.8"/>
  <rect x="25" y="68" width="65" height="3" fill="#2E8B57" opacity="0.8"/>
  <rect x="25" y="74" width="52" height="3" fill="#2E8B57" opacity="0.8"/>
  <rect x="25" y="80" width="70" height="3" fill="#2E8B57" opacity="0.8"/>
  <rect x="25" y="86" width="48" height="3" fill="#2E8B57" opacity="0.8"/>
  <rect x="25" y="92" width="62" height="3" fill="#2E8B57" opacity="0.8"/>
  <rect x="25" y="98" width="45" height="3" fill="#2E8B57" opacity="0.8"/>
  
  <!-- Graduation Cap -->
  <path d="M64 20 L96 30 L64 40 L32 30 Z" fill="#FFD700" stroke="#DAA520" stroke-width="1"/>
  <rect x="62" y="20" width="4" height="20" fill="#FFD700"/>
  <circle cx="94" cy="30" r="3" fill="#FFD700"/>
  <rect x="92" y="32" width="4" height="8" fill="#DAA520"/>
  
  <!-- Decorative Academic Elements -->
  <circle cx="40" cy="35" r="2" fill="#FFD700" opacity="0.8"/>
  <circle cx="88" cy="35" r="2" fill="#FFD700" opacity="0.8"/>
  <path d="M35 32 L40 37 L45 30" stroke="#FFD700" stroke-width="2" fill="none" opacity="0.6"/>
  <path d="M83 32 L88 37 L93 30" stroke="#FFD700" stroke-width="2" fill="none" opacity="0.6"/>
  
  <!-- Arabic/Education Symbol -->
  <circle cx="64" cy="75" r="8" fill="#2E8B57" opacity="0.1"/>
  <text x="64" y="80" text-anchor="middle" font-family="Arial" font-size="12" fill="#2E8B57" opacity="0.8">ع</text>
</svg>